#!OML:ASF F:\VICON\USERDATA\INSTALL\Justin_Nancy\Justin_Nancy.ASF
:FULLY-SPECIFIED
:DEGREES
113
root 6.12071 16.7381 30.0889 6.45419 31.4668 -2.76697
lowerback 10.4923 -0.33182 -6.70151
upperback -0.265913 -1.09409 2.75398
thorax -6.00903 -0.284534 6.89652
lowerneck -19.8629 -0.848494 -6.78663
upperneck 16.2986 -0.0287006 4.14509
head 8.33396 -0.000720211 2.50751
rclavicle 7.46685e-015 -1.68967e-014
rhumerus -75.057 4.43286 -85.7008
rradius 116.051
rwrist -14.6032
rhand -15.4504 31.2067
rfingers 7.12502
rthumb 10.7303 1.50075
lclavicle 7.46685e-015 -1.68967e-014
lhumerus -42.4083 -10.99 94.6311
lradius 121.207
lwrist 31.9878
lhand -8.35318 4.53012
lfingers 7.12502
lthumb 17.569 33.7563
rfemur -50.6779 -13.3623 22.8702
rtibia 40.0691
rfoot 0.489371 10.895
rtoes -25.5085
lfemur 13.1885 -10.0657 -41.7667
ltibia 35.0683
lfoot 20.2867 -13.9982
ltoes -1.49971
114
root 6.44074 16.7189 30.5615 6.29238 31.2806 -2.10602
lowerback 11.152 -0.280299 -7.02193
upperback -0.109089 -1.12076 2.50695
thorax -6.2093 -0.286971 6.83516
lowerneck -20.2468 -1.05262 -6.83275
upperneck 16.4461 -0.348262 4.52225
head 8.46973 -0.112607 2.60781
rclavicle 4.90377e-014 -3.8266e-015
rhumerus -73.8855 4.0133 -85.8129
rradius 115.589
rwrist -14.5504
rhand -14.8862 31.0803
rfingers 7.12502
rthumb 11.2745 1.40333
lclavicle 4.90377e-014 -3.8266e-015
lhumerus -43.0357 -10.5006 94.4372
lradius 119.404
lwrist 31.8218
lhand -9.84911 4.54764
lfingers 7.12502
lthumb 16.1289 33.8965
rfemur -49.9168 -13.4576 23.1143
rtibia 38.4937
rfoot 1.63756 8.41167
rtoes -27.5176
lfemur 12.942 -10.7853 -42.5874
ltibia 40.0571
lfoot 17.6142 -11.1426
ltoes -5.4669
115
root 6.77077 16.7387 31.0618 5.7196 30.6706 -2.16267
lowerback 11.5517 -0.0738512 -6.98734
upperback 0.0802136 -0.868946 2.41341
thorax -6.27637 -0.168084 6.68133
lowerneck -20.3419 -1.16741 -7.0543
upperneck 16.345 -0.534709 5.01906
head 8.46486 -0.159245 2.78946
rclavicle -3.72721e-014 -1.51076e-014
rhumerus -72.646 3.57202 -86.0359
rradius 115.119
rwrist -14.2815
rhand -15.2249 30.5949
rfingers 7.12502
rthumb 10.9478 0.900314
lclavicle -3.72721e-014 -1.51076e-014
lhumerus -44.1279 -9.75563 94.329
lradius 117.654
lwrist 31.3553
lhand -10.7057 4.1976
lfingers 7.12502
lthumb 15.304 33.6114
rfemur -48.1984 -12.5925 23.4053
rtibia 37.2991
rfoot 2.95046 6.65599
rtoes -29.2871
lfemur 11.2073 -10.0867 -42.3653
ltibia 45.4417
lfoot 17.8077 -9.92059
ltoes -2.76986
116
root 7.09222 16.7495 31.5827 4.83651 29.9182 -2.55889
lowerback 11.8042 0.213473 -6.85311
upperback 0.430328 -0.475894 2.41312
thorax -6.10964 0.00373706 6.53848
lowerneck -20.3599 -1.19113 -7.02297
upperneck 16.0534 -0.601493 5.17374
head 8.37366 -0.169333 2.82415
rclavicle 1.34925e-014 -5.51627e-014
rhumerus -71.4772 2.93357 -86.3708
rradius 114.904
rwrist -14.2418
rhand -17.7915 30.2858
rfingers 7.12502
rthumb 8.47157 0.475727
lclavicle 1.34925e-014 -5.51627e-014
lhumerus -45.1648 -8.79735 94.2344
lradius 115.822
lwrist 30.8321
lhand -10.8983 4.05745
lfingers 7.12502
lthumb 15.1185 33.4853
rfemur -46.3237 -11.0559 23.5642
rtibia 36.4886
rfoot 3.91389 7.64218
rtoes -32.7578
lfemur 9.51925 -8.86408 -41.4796
ltibia 50.7957
lfoot 17.298 -9.40485
ltoes -1.62362
117
root 7.41519 16.7523 32.0896 3.93174 29.6954 -2.72727
lowerback 12.2289 0.31754 -6.70841
upperback 0.881838 -0.33481 2.38645
thorax -5.88843 0.0469089 6.4038
lowerneck -20.3381 -1.25105 -7.04218
upperneck 15.6739 -0.702832 5.32999
head 8.24893 -0.198852 2.86157
rclavicle -3.64024e-014 5.96354e-016
rhumerus -69.8281 2.62265 -86.7738
rradius 114.472
rwrist -14.7013
rhand -18.0729 29.8865
rfingers 7.12502
rthumb 8.20002 0.0655772
lclavicle -3.64024e-014 5.96354e-016
lhumerus -45.2632 -7.84679 94.0746
lradius 113.087
lwrist 30.0343
lhand -11.248 4.12213
lfingers 7.12502
lthumb 14.7815 33.575
rfemur -44.2744 -10.1672 23.3688
rtibia 36.1851
rfoot 6.55083 5.19779
rtoes -10.3067
lfemur 7.7383 -7.79061 -40.587
ltibia 56.2278
lfoot 17.5824 -9.00541
ltoes 3.77335
